<?xml version="1.0" encoding="UTF-8" standalone="no"?>
<!DOCTYPE svg PUBLIC "-//W3C//DTD SVG 1.1//EN" "http://www.w3.org/Graphics/SVG/1.1/DTD/svg11.dtd">
<svg width="100%" height="100%" viewBox="0 0 1000 1000" version="1.1" xmlns="http://www.w3.org/2000/svg" xmlns:xlink="http://www.w3.org/1999/xlink" xml:space="preserve" xmlns:serif="http://www.serif.com/" style="fill-rule:evenodd;clip-rule:evenodd;stroke-linejoin:round;stroke-miterlimit:2;">
    <path d="M34,197.744C34,175.04 36.003,154.84 40.01,137.144C44.017,119.448 51.696,104.924 63.048,93.571C74.4,82.219 90.093,73.538 110.126,67.528C130.16,61.518 156.203,58.513 188.256,58.513L497.222,58.513C527.94,58.513 552.647,61.518 571.345,67.528C590.043,73.538 604.734,82.553 615.418,94.573C626.103,106.593 633.281,121.618 636.954,139.648C640.627,157.678 642.463,178.713 642.463,202.753L642.463,276.876L830.776,94.573C845.467,80.55 859.156,73.538 871.844,73.538C879.189,73.538 885.7,75.041 891.376,78.046C897.052,81.051 901.894,84.556 905.9,88.563L950.975,135.641C960.992,145.658 966,156.676 966,168.696C966,176.042 963.83,183.554 959.489,191.233C955.149,198.913 948.304,206.425 938.955,213.771L642.463,436.14L642.463,817.273C642.463,840.645 640.794,861.179 637.455,878.875C634.116,896.571 626.77,911.262 615.418,922.948C604.066,934.634 587.705,943.482 566.337,949.492C544.968,955.502 515.92,958.507 479.192,958.507L188.256,958.507C156.203,958.507 130.16,955.502 110.126,949.492C90.093,943.482 74.4,934.801 63.048,923.449C51.696,912.097 44.017,897.739 40.01,880.377C36.003,863.015 34,842.648 34,819.276L34,197.744ZM557.322,207.535C557.322,195.408 556.32,185.761 554.317,178.595C552.313,171.429 548.307,166.055 542.297,162.472C536.287,158.889 528.273,156.684 518.257,155.857C508.24,155.03 430.156,154.617 414.129,154.617L414.129,862.404C430.156,862.404 508.24,861.99 518.257,861.163C528.273,860.336 536.287,858.131 542.297,854.548C548.307,850.965 552.313,845.729 554.317,838.838C556.32,831.948 557.322,822.163 557.322,809.485L557.322,207.535Z" style="fill:rgb(35,31,32);"/>
    <g transform="matrix(2051.4,0,0,1693.4,-187.915,931.859)">
        <path d="M0.363,-0.072L0.363,-0.332L0.293,-0.332L0.293,-0.041C0.301,-0.041 0.339,-0.041 0.344,-0.042C0.349,-0.042 0.353,-0.044 0.356,-0.046C0.359,-0.048 0.361,-0.051 0.362,-0.055C0.363,-0.059 0.363,-0.065 0.363,-0.072Z" style="fill:rgb(0,186,255);"/>
    </g>
</svg>
