<?xml version="1.0" encoding="UTF-8" standalone="no"?>
<!DOCTYPE svg PUBLIC "-//W3C//DTD SVG 1.1//EN" "http://www.w3.org/Graphics/SVG/1.1/DTD/svg11.dtd">
<svg width="100%" height="100%" viewBox="0 0 1000 1000" version="1.1" xmlns="http://www.w3.org/2000/svg" xmlns:xlink="http://www.w3.org/1999/xlink" xml:space="preserve" xmlns:serif="http://www.serif.com/" style="fill-rule:evenodd;clip-rule:evenodd;stroke-linejoin:round;stroke-miterlimit:2;">
    <g transform="matrix(2051.4,0,0,2051.4,-187.915,958.507)">
        <path d="M0.421,-0.247L0.421,-0.069C0.421,-0.056 0.42,-0.045 0.418,-0.036C0.416,-0.024 0.411,-0.014 0.403,-0.006C0.396,0.001 0.386,0.007 0.372,0.011C0.361,0.014 0.345,0.016 0.325,0.016C0.325,0.016 0.183,0.016 0.183,0.016C0.166,0.016 0.152,0.014 0.141,0.011C0.128,0.007 0.118,0.002 0.111,-0.006C0.103,-0.013 0.098,-0.023 0.095,-0.034C0.093,-0.044 0.092,-0.055 0.092,-0.068L0.092,-0.371C0.092,-0.383 0.093,-0.394 0.095,-0.404C0.098,-0.416 0.103,-0.426 0.111,-0.433C0.118,-0.44 0.128,-0.446 0.141,-0.45C0.152,-0.453 0.166,-0.455 0.183,-0.455L0.334,-0.455C0.351,-0.455 0.365,-0.453 0.375,-0.45C0.387,-0.446 0.397,-0.44 0.404,-0.432C0.411,-0.424 0.416,-0.414 0.418,-0.402C0.42,-0.393 0.421,-0.383 0.421,-0.371L0.485,-0.433C0.496,-0.443 0.507,-0.448 0.517,-0.448C0.523,-0.448 0.529,-0.446 0.534,-0.444C0.538,-0.441 0.542,-0.439 0.545,-0.436C0.545,-0.435 0.545,-0.435 0.545,-0.435C0.545,-0.435 0.567,-0.412 0.567,-0.413C0.575,-0.404 0.579,-0.395 0.579,-0.385C0.579,-0.379 0.577,-0.372 0.573,-0.366C0.57,-0.361 0.566,-0.355 0.559,-0.35L0.421,-0.247ZM0.108,-0.371C0.108,-0.382 0.109,-0.392 0.111,-0.4C0.113,-0.409 0.117,-0.416 0.122,-0.422C0.128,-0.427 0.136,-0.431 0.145,-0.434C0.155,-0.437 0.168,-0.439 0.183,-0.439L0.334,-0.439C0.349,-0.439 0.361,-0.437 0.37,-0.434C0.379,-0.431 0.386,-0.427 0.392,-0.421C0.397,-0.415 0.4,-0.408 0.402,-0.399C0.404,-0.39 0.405,-0.38 0.405,-0.368L0.405,-0.332L0.497,-0.421C0.504,-0.428 0.51,-0.431 0.517,-0.431C0.52,-0.431 0.523,-0.431 0.526,-0.429C0.529,-0.428 0.531,-0.426 0.533,-0.424L0.555,-0.401C0.56,-0.396 0.563,-0.391 0.563,-0.385C0.563,-0.381 0.561,-0.378 0.559,-0.374C0.557,-0.37 0.554,-0.367 0.549,-0.363L0.405,-0.255L0.405,-0.069C0.405,-0.057 0.404,-0.047 0.402,-0.039C0.401,-0.03 0.397,-0.023 0.392,-0.017C0.386,-0.012 0.378,-0.007 0.368,-0.004C0.357,-0.001 0.343,0 0.325,0L0.183,0C0.168,0 0.155,-0.001 0.145,-0.004C0.136,-0.007 0.128,-0.012 0.122,-0.017C0.117,-0.023 0.113,-0.03 0.111,-0.038C0.109,-0.047 0.108,-0.056 0.108,-0.068L0.108,-0.371Z" style="fill:white;"/>
    </g>
    <g transform="matrix(2051.4,0,0,2051.4,-187.915,958.507)">
        <path d="M0.108,-0.371C0.108,-0.382 0.109,-0.392 0.111,-0.4C0.113,-0.409 0.117,-0.416 0.122,-0.422C0.128,-0.427 0.136,-0.431 0.145,-0.434C0.155,-0.437 0.168,-0.439 0.183,-0.439L0.334,-0.439C0.349,-0.439 0.361,-0.437 0.37,-0.434C0.379,-0.431 0.386,-0.427 0.392,-0.421C0.397,-0.415 0.4,-0.408 0.402,-0.399C0.404,-0.39 0.405,-0.38 0.405,-0.368L0.405,-0.332L0.497,-0.421C0.504,-0.428 0.51,-0.431 0.517,-0.431C0.52,-0.431 0.523,-0.431 0.526,-0.429C0.529,-0.428 0.531,-0.426 0.533,-0.424L0.555,-0.401C0.56,-0.396 0.563,-0.391 0.563,-0.385C0.563,-0.381 0.561,-0.378 0.559,-0.374C0.557,-0.37 0.554,-0.367 0.549,-0.363L0.405,-0.255L0.405,-0.069C0.405,-0.057 0.404,-0.047 0.402,-0.039C0.401,-0.03 0.397,-0.023 0.392,-0.017C0.386,-0.012 0.378,-0.007 0.368,-0.004C0.357,-0.001 0.343,0 0.325,0L0.183,0C0.168,0 0.155,-0.001 0.145,-0.004C0.136,-0.007 0.128,-0.012 0.122,-0.017C0.117,-0.023 0.113,-0.03 0.111,-0.038C0.109,-0.047 0.108,-0.056 0.108,-0.068L0.108,-0.371Z" style="fill:rgb(35,31,32);"/>
    </g>
    <g transform="matrix(2051.4,0,0,1693.4,-187.915,931.859)">
        <path d="M0.363,-0.428C0.363,-0.435 0.363,-0.441 0.362,-0.445C0.361,-0.449 0.359,-0.452 0.356,-0.454C0.353,-0.456 0.349,-0.458 0.344,-0.458C0.339,-0.459 0.301,-0.459 0.293,-0.459L0.293,-0.041C0.301,-0.041 0.339,-0.041 0.344,-0.042C0.349,-0.042 0.353,-0.044 0.356,-0.046C0.359,-0.048 0.361,-0.051 0.362,-0.055C0.363,-0.059 0.363,-0.065 0.363,-0.072L0.363,-0.428Z" style="fill:white;"/>
    </g>
    <g transform="matrix(2051.4,0,0,1693.4,-187.915,931.859)">
        <path d="M0.363,-0.072L0.363,-0.332L0.293,-0.332L0.293,-0.041C0.301,-0.041 0.339,-0.041 0.344,-0.042C0.349,-0.042 0.353,-0.044 0.356,-0.046C0.359,-0.048 0.361,-0.051 0.362,-0.055C0.363,-0.059 0.363,-0.065 0.363,-0.072Z" style="fill:rgb(0,186,255);"/>
    </g>
</svg>
