<?xml version="1.0" encoding="UTF-8" standalone="no"?>
<!DOCTYPE svg PUBLIC "-//W3C//DTD SVG 1.1//EN" "http://www.w3.org/Graphics/SVG/1.1/DTD/svg11.dtd">
<svg width="100%" height="100%" viewBox="0 0 1225 219" version="1.1" xmlns="http://www.w3.org/2000/svg" xmlns:xlink="http://www.w3.org/1999/xlink" xml:space="preserve" style="fill-rule:evenodd;clip-rule:evenodd;stroke-linejoin:round;stroke-miterlimit:2;">
    <g transform="matrix(1,0,0,1,-7659.93,-3132.18)">
        <g transform="matrix(1,0,0,1,6517.79,2600.56)">
            <g transform="matrix(0.73364,0,0,0.73364,468.157,-8.75824)">
                <g transform="matrix(363.938,0,0,363.938,902.335,1027.66)">
                    <path d="M0.045,-0.633C0.045,-0.644 0.046,-0.654 0.048,-0.663C0.05,-0.671 0.054,-0.678 0.059,-0.684C0.065,-0.69 0.072,-0.694 0.082,-0.697C0.092,-0.7 0.104,-0.701 0.12,-0.701L0.338,-0.701C0.36,-0.701 0.383,-0.7 0.405,-0.697C0.427,-0.694 0.448,-0.69 0.469,-0.683C0.489,-0.677 0.508,-0.668 0.525,-0.658C0.543,-0.647 0.558,-0.634 0.571,-0.619C0.583,-0.603 0.594,-0.585 0.601,-0.565C0.608,-0.544 0.612,-0.52 0.612,-0.493C0.612,-0.453 0.606,-0.419 0.595,-0.392C0.585,-0.364 0.57,-0.342 0.551,-0.324C0.533,-0.306 0.511,-0.292 0.487,-0.283C0.462,-0.273 0.436,-0.266 0.409,-0.262L0.409,-0.079C0.409,-0.072 0.409,-0.063 0.407,-0.054C0.406,-0.045 0.403,-0.037 0.397,-0.029C0.392,-0.021 0.384,-0.014 0.374,-0.008C0.363,-0.003 0.348,0 0.329,0L0.12,0C0.104,0 0.092,-0.001 0.082,-0.004C0.072,-0.007 0.065,-0.012 0.059,-0.017C0.054,-0.023 0.05,-0.03 0.048,-0.038C0.046,-0.047 0.045,-0.056 0.045,-0.068L0.045,-0.633ZM0.543,-0.486C0.543,-0.505 0.54,-0.523 0.535,-0.54C0.53,-0.556 0.522,-0.571 0.511,-0.583C0.5,-0.595 0.487,-0.606 0.47,-0.614C0.453,-0.622 0.433,-0.627 0.409,-0.63L0.409,-0.327C0.433,-0.331 0.453,-0.337 0.47,-0.347C0.487,-0.356 0.5,-0.368 0.511,-0.382C0.522,-0.396 0.53,-0.412 0.535,-0.429C0.54,-0.447 0.543,-0.466 0.543,-0.486ZM0.368,-0.636C0.361,-0.637 0.354,-0.637 0.347,-0.637C0.34,-0.637 0.334,-0.637 0.33,-0.637L0.33,-0.041C0.337,-0.041 0.344,-0.041 0.349,-0.042C0.354,-0.042 0.357,-0.044 0.36,-0.046C0.363,-0.048 0.365,-0.051 0.366,-0.055C0.367,-0.059 0.368,-0.065 0.368,-0.072L0.368,-0.636Z" style="fill:rgb(35,31,32);fill-rule:nonzero;"/>
                </g>
                <g transform="matrix(363.938,0,0,363.938,1132.28,1027.66)">
                    <path d="M0.045,-0.732C0.045,-0.743 0.046,-0.753 0.048,-0.761C0.05,-0.77 0.054,-0.777 0.059,-0.783C0.065,-0.788 0.072,-0.792 0.082,-0.795C0.092,-0.798 0.104,-0.8 0.12,-0.8L0.334,-0.8C0.349,-0.8 0.361,-0.798 0.37,-0.796C0.379,-0.793 0.386,-0.789 0.392,-0.783C0.397,-0.778 0.4,-0.771 0.402,-0.762C0.404,-0.754 0.405,-0.744 0.405,-0.732L0.405,-0.067C0.405,-0.056 0.404,-0.046 0.402,-0.038C0.4,-0.03 0.396,-0.023 0.391,-0.017C0.386,-0.011 0.379,-0.007 0.369,-0.004C0.36,-0.001 0.348,0 0.333,0L0.12,0C0.104,0 0.092,-0.001 0.082,-0.004C0.072,-0.007 0.065,-0.012 0.059,-0.017C0.054,-0.023 0.05,-0.03 0.048,-0.038C0.046,-0.047 0.045,-0.056 0.045,-0.068L0.045,-0.732ZM0.363,-0.728C0.363,-0.735 0.363,-0.74 0.362,-0.745C0.361,-0.749 0.359,-0.752 0.356,-0.754C0.353,-0.756 0.349,-0.758 0.344,-0.758C0.339,-0.759 0.333,-0.759 0.325,-0.759L0.325,-0.041C0.333,-0.041 0.339,-0.041 0.344,-0.042C0.349,-0.042 0.353,-0.044 0.356,-0.046C0.359,-0.048 0.361,-0.051 0.362,-0.055C0.363,-0.059 0.363,-0.065 0.363,-0.072L0.363,-0.728Z" style="fill:rgb(35,31,32);fill-rule:nonzero;"/>
                </g>
                <g transform="matrix(363.938,0,0,363.938,1295.95,1027.66)">
                    <path d="M0.249,0C0.231,0 0.214,-0.001 0.196,-0.003C0.178,-0.006 0.161,-0.009 0.145,-0.014C0.129,-0.019 0.114,-0.026 0.1,-0.034C0.086,-0.042 0.074,-0.052 0.064,-0.064C0.053,-0.076 0.045,-0.091 0.04,-0.107C0.034,-0.123 0.031,-0.142 0.031,-0.163C0.031,-0.191 0.036,-0.216 0.047,-0.236C0.058,-0.256 0.072,-0.273 0.09,-0.286C0.108,-0.299 0.129,-0.31 0.152,-0.317C0.176,-0.324 0.2,-0.329 0.225,-0.331L0.225,-0.364C0.225,-0.377 0.223,-0.387 0.22,-0.395C0.217,-0.402 0.213,-0.408 0.208,-0.411C0.203,-0.415 0.197,-0.418 0.191,-0.419C0.185,-0.42 0.179,-0.42 0.174,-0.42C0.167,-0.42 0.16,-0.419 0.153,-0.417C0.146,-0.416 0.139,-0.413 0.132,-0.41C0.125,-0.408 0.118,-0.405 0.112,-0.401C0.106,-0.398 0.101,-0.395 0.097,-0.393C0.095,-0.391 0.093,-0.39 0.091,-0.389C0.09,-0.388 0.088,-0.388 0.086,-0.388C0.083,-0.388 0.081,-0.39 0.078,-0.394L0.062,-0.42C0.06,-0.423 0.059,-0.425 0.059,-0.428C0.059,-0.43 0.06,-0.433 0.062,-0.435C0.064,-0.437 0.066,-0.438 0.068,-0.439C0.079,-0.447 0.093,-0.455 0.109,-0.462C0.126,-0.47 0.145,-0.477 0.165,-0.483C0.186,-0.49 0.208,-0.495 0.232,-0.499C0.257,-0.502 0.281,-0.504 0.307,-0.504C0.332,-0.504 0.355,-0.504 0.379,-0.502C0.402,-0.5 0.424,-0.497 0.445,-0.491C0.465,-0.486 0.484,-0.478 0.501,-0.469C0.518,-0.459 0.533,-0.445 0.546,-0.429C0.558,-0.413 0.568,-0.393 0.575,-0.369C0.582,-0.345 0.585,-0.317 0.585,-0.284L0.585,-0.066C0.585,-0.055 0.584,-0.046 0.582,-0.037C0.58,-0.029 0.576,-0.022 0.571,-0.017C0.565,-0.011 0.558,-0.007 0.548,-0.004C0.538,-0.001 0.525,0 0.51,0L0.249,0ZM0.225,-0.269C0.202,-0.269 0.182,-0.266 0.166,-0.26C0.15,-0.254 0.137,-0.246 0.127,-0.236C0.118,-0.227 0.111,-0.215 0.106,-0.202C0.102,-0.19 0.1,-0.176 0.1,-0.163C0.1,-0.149 0.102,-0.136 0.106,-0.124C0.111,-0.112 0.118,-0.101 0.127,-0.092C0.137,-0.083 0.15,-0.076 0.166,-0.07C0.182,-0.065 0.202,-0.063 0.225,-0.063L0.225,-0.269ZM0.505,-0.041C0.513,-0.041 0.52,-0.041 0.524,-0.042C0.529,-0.042 0.533,-0.044 0.536,-0.046C0.539,-0.048 0.541,-0.051 0.542,-0.055C0.543,-0.059 0.543,-0.065 0.543,-0.072L0.543,-0.294C0.543,-0.321 0.541,-0.343 0.535,-0.361C0.53,-0.379 0.523,-0.394 0.514,-0.406C0.506,-0.417 0.497,-0.426 0.487,-0.432C0.478,-0.438 0.468,-0.442 0.46,-0.445C0.464,-0.441 0.469,-0.435 0.474,-0.427C0.479,-0.419 0.484,-0.41 0.489,-0.397C0.493,-0.385 0.497,-0.371 0.5,-0.354C0.504,-0.337 0.505,-0.318 0.505,-0.296L0.505,-0.041Z" style="fill:rgb(35,31,32);fill-rule:nonzero;"/>
                </g>
                <g transform="matrix(363.938,0,0,363.938,1525.19,1027.66)">
                    <path d="M0.045,-0.432C0.045,-0.443 0.046,-0.453 0.048,-0.462C0.05,-0.47 0.054,-0.477 0.059,-0.483C0.065,-0.488 0.072,-0.493 0.082,-0.496C0.092,-0.499 0.104,-0.5 0.12,-0.5L0.32,-0.5C0.334,-0.5 0.347,-0.499 0.358,-0.496C0.368,-0.493 0.376,-0.488 0.38,-0.48C0.385,-0.483 0.39,-0.487 0.396,-0.49C0.402,-0.493 0.408,-0.497 0.416,-0.5C0.423,-0.502 0.43,-0.505 0.438,-0.507C0.447,-0.509 0.455,-0.51 0.464,-0.51C0.495,-0.51 0.519,-0.499 0.537,-0.478C0.554,-0.456 0.563,-0.424 0.563,-0.383L0.563,-0.023C0.563,-0.017 0.562,-0.013 0.561,-0.01C0.559,-0.007 0.558,-0.005 0.555,-0.003C0.553,-0.002 0.551,-0.001 0.548,0C0.545,0 0.542,0 0.539,0L0.508,0C0.499,0 0.494,-0.002 0.491,-0.007C0.489,-0.012 0.488,-0.017 0.488,-0.023L0.488,-0.388C0.488,-0.406 0.484,-0.42 0.478,-0.43C0.471,-0.44 0.46,-0.445 0.446,-0.445C0.438,-0.445 0.431,-0.443 0.423,-0.439C0.415,-0.435 0.409,-0.43 0.405,-0.426L0.405,-0.068C0.405,-0.057 0.404,-0.047 0.402,-0.039C0.4,-0.03 0.396,-0.023 0.391,-0.017C0.385,-0.012 0.377,-0.007 0.368,-0.004C0.358,-0.001 0.345,0 0.33,0L0.12,0C0.104,0 0.092,-0.001 0.082,-0.004C0.072,-0.007 0.065,-0.012 0.059,-0.017C0.054,-0.023 0.05,-0.03 0.048,-0.038C0.046,-0.047 0.045,-0.056 0.045,-0.068L0.045,-0.432ZM0.363,-0.428C0.363,-0.439 0.36,-0.447 0.354,-0.452C0.348,-0.457 0.339,-0.459 0.325,-0.459L0.325,-0.041C0.333,-0.041 0.339,-0.041 0.344,-0.042C0.349,-0.042 0.353,-0.044 0.356,-0.046C0.359,-0.048 0.361,-0.051 0.362,-0.055C0.363,-0.059 0.363,-0.065 0.363,-0.072L0.363,-0.428Z" style="fill:rgb(35,31,32);fill-rule:nonzero;"/>
                </g>
                <g transform="matrix(363.938,0,0,363.938,1746.43,1027.66)">
                    <path d="M0.01,-0.34C0.003,-0.34 0,-0.343 0,-0.351L0,-0.39C0,-0.396 0.003,-0.4 0.01,-0.4L0.061,-0.4L0.061,-0.511C0.061,-0.516 0.062,-0.521 0.063,-0.525C0.065,-0.53 0.069,-0.534 0.075,-0.537L0.345,-0.636C0.357,-0.641 0.367,-0.644 0.375,-0.646C0.384,-0.649 0.391,-0.65 0.397,-0.65C0.399,-0.65 0.402,-0.649 0.405,-0.649C0.407,-0.648 0.41,-0.646 0.412,-0.645C0.415,-0.643 0.417,-0.64 0.418,-0.636C0.42,-0.633 0.421,-0.629 0.421,-0.624L0.421,-0.4L0.509,-0.4C0.516,-0.4 0.519,-0.396 0.519,-0.39L0.519,-0.351C0.519,-0.343 0.516,-0.34 0.509,-0.34L0.421,-0.34L0.421,-0.143C0.421,-0.12 0.425,-0.104 0.432,-0.094C0.44,-0.085 0.452,-0.08 0.468,-0.08C0.471,-0.08 0.475,-0.08 0.479,-0.081C0.483,-0.082 0.487,-0.083 0.49,-0.084C0.493,-0.085 0.497,-0.085 0.5,-0.086C0.502,-0.087 0.505,-0.087 0.507,-0.087C0.51,-0.087 0.512,-0.085 0.512,-0.081L0.512,-0.043C0.512,-0.037 0.511,-0.033 0.508,-0.03C0.506,-0.028 0.503,-0.027 0.501,-0.026C0.489,-0.021 0.475,-0.015 0.458,-0.01C0.441,-0.005 0.423,0 0.404,0.004C0.384,0.008 0.364,0.011 0.342,0.013C0.321,0.016 0.299,0.017 0.278,0.017C0.247,0.017 0.218,0.016 0.192,0.012C0.165,0.009 0.142,0.002 0.123,-0.009C0.103,-0.02 0.088,-0.036 0.077,-0.058C0.066,-0.08 0.061,-0.11 0.061,-0.147L0.061,-0.34L0.01,-0.34ZM0.379,-0.58C0.379,-0.587 0.379,-0.592 0.377,-0.596C0.376,-0.6 0.372,-0.602 0.367,-0.602C0.365,-0.602 0.362,-0.602 0.359,-0.601C0.356,-0.6 0.353,-0.599 0.349,-0.598L0.341,-0.594L0.341,-0.13C0.341,-0.116 0.344,-0.104 0.349,-0.095C0.354,-0.086 0.36,-0.078 0.367,-0.073C0.374,-0.068 0.382,-0.065 0.39,-0.063C0.398,-0.061 0.405,-0.06 0.412,-0.06C0.407,-0.064 0.402,-0.068 0.398,-0.072C0.394,-0.076 0.391,-0.081 0.388,-0.086C0.385,-0.092 0.383,-0.098 0.382,-0.104C0.38,-0.111 0.379,-0.119 0.379,-0.128L0.379,-0.58Z" style="fill:rgb(35,31,32);fill-rule:nonzero;"/>
                </g>
                <g transform="matrix(363.938,0,0,363.938,1946.17,1027.66)">
                    <path d="M0.405,-0.119C0.405,-0.101 0.408,-0.087 0.414,-0.078C0.42,-0.069 0.43,-0.065 0.445,-0.065C0.452,-0.065 0.46,-0.067 0.469,-0.07C0.477,-0.073 0.483,-0.076 0.488,-0.079L0.488,-0.477C0.488,-0.483 0.489,-0.488 0.491,-0.493C0.494,-0.498 0.499,-0.5 0.508,-0.5L0.539,-0.5C0.542,-0.5 0.545,-0.5 0.548,-0.5C0.551,-0.499 0.553,-0.498 0.555,-0.497C0.558,-0.495 0.559,-0.493 0.561,-0.49C0.562,-0.487 0.563,-0.483 0.563,-0.477L0.563,-0.023C0.563,-0.017 0.562,-0.013 0.561,-0.01C0.559,-0.007 0.558,-0.005 0.555,-0.003C0.553,-0.002 0.551,-0.001 0.548,0C0.545,0 0.542,0 0.539,0L0.508,0C0.499,0 0.494,-0.002 0.491,-0.007C0.489,-0.012 0.488,-0.02 0.488,-0.031C0.481,-0.028 0.471,-0.025 0.458,-0.02C0.445,-0.015 0.429,-0.011 0.409,-0.007C0.39,-0.002 0.367,0.002 0.34,0.005C0.314,0.008 0.283,0.01 0.249,0.01C0.214,0.01 0.184,0.007 0.158,0.001C0.132,-0.005 0.111,-0.014 0.094,-0.028C0.078,-0.041 0.065,-0.058 0.057,-0.079C0.049,-0.1 0.045,-0.126 0.045,-0.157L0.045,-0.432C0.045,-0.443 0.046,-0.453 0.048,-0.462C0.05,-0.47 0.054,-0.477 0.059,-0.483C0.065,-0.488 0.072,-0.493 0.082,-0.496C0.092,-0.499 0.104,-0.5 0.12,-0.5L0.334,-0.5C0.353,-0.5 0.367,-0.497 0.377,-0.492C0.387,-0.486 0.394,-0.479 0.398,-0.471C0.402,-0.463 0.404,-0.454 0.405,-0.445C0.405,-0.435 0.405,-0.427 0.405,-0.419L0.405,-0.119ZM0.363,-0.428C0.363,-0.435 0.363,-0.441 0.362,-0.445C0.361,-0.449 0.359,-0.452 0.356,-0.454C0.353,-0.456 0.349,-0.458 0.344,-0.458C0.339,-0.459 0.333,-0.459 0.325,-0.459L0.325,-0.116C0.325,-0.102 0.328,-0.092 0.333,-0.083C0.338,-0.075 0.344,-0.069 0.351,-0.065C0.358,-0.06 0.365,-0.057 0.372,-0.056C0.378,-0.054 0.383,-0.053 0.387,-0.053C0.379,-0.062 0.373,-0.07 0.369,-0.079C0.365,-0.088 0.363,-0.099 0.363,-0.114L0.363,-0.428Z" style="fill:rgb(35,31,32);fill-rule:nonzero;"/>
                </g>
                <g transform="matrix(363.938,0,0,363.938,2167.41,1027.66)">
                    <path d="M0.045,-0.432C0.045,-0.443 0.046,-0.453 0.048,-0.462C0.05,-0.47 0.054,-0.477 0.059,-0.483C0.065,-0.488 0.072,-0.493 0.082,-0.496C0.092,-0.499 0.104,-0.5 0.12,-0.5L0.334,-0.5C0.349,-0.5 0.361,-0.499 0.37,-0.496C0.379,-0.493 0.386,-0.488 0.392,-0.482C0.397,-0.477 0.4,-0.469 0.402,-0.46C0.404,-0.452 0.405,-0.441 0.405,-0.43L0.405,-0.394L0.513,-0.499C0.52,-0.506 0.527,-0.509 0.533,-0.509C0.537,-0.509 0.54,-0.509 0.543,-0.507C0.545,-0.506 0.548,-0.504 0.55,-0.502L0.572,-0.479C0.577,-0.474 0.579,-0.469 0.579,-0.463C0.579,-0.459 0.578,-0.456 0.576,-0.452C0.574,-0.448 0.57,-0.444 0.566,-0.441L0.405,-0.316L0.405,-0.069C0.405,-0.057 0.404,-0.047 0.402,-0.039C0.401,-0.03 0.397,-0.023 0.392,-0.017C0.386,-0.012 0.378,-0.007 0.368,-0.004C0.357,-0.001 0.343,0 0.325,0L0.12,0C0.104,0 0.092,-0.001 0.082,-0.004C0.072,-0.007 0.065,-0.012 0.059,-0.017C0.054,-0.023 0.05,-0.03 0.048,-0.038C0.046,-0.047 0.045,-0.056 0.045,-0.068L0.045,-0.432ZM0.363,-0.428C0.363,-0.435 0.363,-0.441 0.362,-0.445C0.361,-0.449 0.359,-0.452 0.356,-0.454C0.353,-0.456 0.349,-0.458 0.344,-0.458C0.339,-0.459 0.333,-0.459 0.325,-0.459L0.325,-0.041C0.333,-0.041 0.339,-0.041 0.344,-0.042C0.349,-0.042 0.353,-0.044 0.356,-0.046C0.359,-0.048 0.361,-0.051 0.362,-0.055C0.363,-0.059 0.363,-0.065 0.363,-0.072L0.363,-0.428Z" style="fill:rgb(35,31,32);fill-rule:nonzero;"/>
                </g>
                <g transform="matrix(363.938,0,0,363.938,2364.84,1027.66)">
                    <path d="M0.487,-0.081C0.496,-0.081 0.504,-0.082 0.511,-0.085C0.518,-0.087 0.525,-0.09 0.531,-0.093C0.536,-0.096 0.541,-0.098 0.545,-0.101C0.548,-0.103 0.551,-0.104 0.553,-0.104C0.556,-0.104 0.558,-0.104 0.559,-0.103C0.56,-0.102 0.562,-0.1 0.563,-0.098L0.581,-0.071C0.582,-0.069 0.583,-0.066 0.583,-0.064C0.583,-0.062 0.582,-0.06 0.581,-0.059C0.58,-0.058 0.578,-0.057 0.577,-0.056C0.566,-0.048 0.553,-0.04 0.538,-0.031C0.522,-0.023 0.504,-0.015 0.483,-0.008C0.462,-0.001 0.439,0.005 0.413,0.01C0.387,0.015 0.358,0.017 0.327,0.017C0.303,0.017 0.278,0.015 0.254,0.011C0.229,0.007 0.206,0.001 0.184,-0.007C0.162,-0.016 0.141,-0.027 0.122,-0.041C0.102,-0.054 0.086,-0.071 0.072,-0.091C0.057,-0.111 0.046,-0.134 0.038,-0.16C0.03,-0.186 0.026,-0.216 0.026,-0.25C0.026,-0.283 0.03,-0.313 0.038,-0.339C0.046,-0.365 0.057,-0.388 0.072,-0.408C0.086,-0.428 0.102,-0.445 0.122,-0.459C0.141,-0.473 0.162,-0.484 0.184,-0.492C0.206,-0.501 0.229,-0.507 0.254,-0.511C0.278,-0.515 0.303,-0.517 0.327,-0.517C0.368,-0.517 0.406,-0.513 0.441,-0.503C0.476,-0.494 0.506,-0.479 0.532,-0.458C0.557,-0.438 0.578,-0.41 0.592,-0.376C0.607,-0.343 0.614,-0.301 0.614,-0.252L0.614,-0.225C0.614,-0.219 0.613,-0.214 0.61,-0.211C0.607,-0.208 0.602,-0.206 0.595,-0.206L0.393,-0.206C0.396,-0.182 0.4,-0.162 0.407,-0.146C0.414,-0.13 0.421,-0.117 0.43,-0.107C0.439,-0.098 0.448,-0.091 0.458,-0.087C0.468,-0.083 0.478,-0.081 0.487,-0.081ZM0.545,-0.266C0.545,-0.292 0.543,-0.314 0.539,-0.331C0.535,-0.348 0.529,-0.362 0.522,-0.372C0.516,-0.382 0.508,-0.389 0.498,-0.394C0.489,-0.398 0.479,-0.4 0.469,-0.4C0.462,-0.4 0.454,-0.398 0.445,-0.396C0.436,-0.393 0.428,-0.386 0.42,-0.377C0.413,-0.368 0.406,-0.354 0.401,-0.336C0.395,-0.319 0.392,-0.295 0.391,-0.266L0.545,-0.266ZM0.455,-0.054C0.445,-0.056 0.433,-0.061 0.421,-0.068C0.409,-0.075 0.397,-0.085 0.386,-0.1C0.375,-0.115 0.367,-0.134 0.359,-0.158C0.352,-0.181 0.349,-0.211 0.349,-0.247C0.349,-0.28 0.352,-0.308 0.358,-0.331C0.365,-0.353 0.373,-0.372 0.383,-0.387C0.393,-0.401 0.404,-0.412 0.417,-0.42C0.43,-0.427 0.442,-0.432 0.455,-0.434C0.436,-0.433 0.417,-0.429 0.399,-0.422C0.381,-0.415 0.366,-0.404 0.352,-0.389C0.339,-0.374 0.328,-0.355 0.32,-0.332C0.313,-0.308 0.309,-0.28 0.309,-0.247C0.309,-0.212 0.313,-0.182 0.322,-0.157C0.331,-0.133 0.343,-0.113 0.357,-0.097C0.371,-0.082 0.387,-0.071 0.404,-0.064C0.422,-0.057 0.438,-0.054 0.455,-0.054Z" style="fill:rgb(35,31,32);fill-rule:nonzero;"/>
                </g>
            </g>
        </g>
    </g>
</svg>
